<?xml version="1.0" encoding="UTF-8"?>
<svg xmlns="http://www.w3.org/2000/svg" xmlns:xlink="http://www.w3.org/1999/xlink" width="50px" height="50px" viewBox="0 0 50 50" version="1.1">
<g id="surface1">
<path style="fill-rule:nonzero;fill:rgb(35.294119%,10.980392%,45.490196%);fill-opacity:1;stroke-width:1;stroke-linecap:butt;stroke-linejoin:miter;stroke:rgb(35.294119%,10.980392%,45.490196%);stroke-opacity:1;stroke-miterlimit:4;" d="M 500.78691 112.829076 C 497.609179 102.158176 485.879035 95.763482 475.208135 98.941213 L 431.465291 111.769832 L 405.886515 88.309544 L 413.340453 54.178357 L 458.142541 40.290494 C 468.813441 37.073532 475.208135 25.343388 471.991172 14.711719 C 468.813441 4.040819 457.083297 -2.393106 446.412397 0.823856 L 389.880165 17.88945 C 383.485472 20.007938 378.150022 25.343388 375.992303 32.836556 L 364.262159 80.816376 L 249.079208 124.55922 C 227.737408 95.763482 193.60622 76.540169 155.198826 76.540169 C 91.212657 76.540169 38.9174 129.89467 38.9174 192.821595 C 38.9174 214.163395 45.351325 234.40672 55.982994 252.570789 L 55.982994 459.476403 L 21.851806 459.476403 C 10.121663 459.476403 0.549238 469.08806 0.549238 480.818204 C 0.549238 492.548347 10.121663 502.160004 21.851806 502.160004 L 289.60509 502.160004 C 301.335233 502.160004 309.848415 492.548347 310.94689 480.818204 C 310.94689 469.08806 301.335233 459.476403 289.60509 459.476403 L 255.473902 459.476403 L 255.473902 249.353827 C 265.085558 232.288233 271.480252 212.044908 271.480252 191.762351 C 271.480252 181.091451 270.381777 171.479795 267.204046 161.90737 L 378.150022 119.22377 L 411.182734 151.23647 C 414.399697 154.414201 419.735147 156.57192 425.070597 156.57192 C 426.129841 156.57192 428.248328 156.57192 430.406047 155.473445 L 486.938279 138.407851 C 497.609179 135.23012 504.003872 123.499976 500.78691 112.829076 Z M 212.790302 459.476403 L 98.666594 459.476403 L 98.666594 293.096671 C 115.732188 302.708327 134.91627 308.043777 155.198826 308.043777 C 176.540626 308.043777 195.724708 302.708327 212.790302 292.037427 Z M 155.198826 265.360177 C 114.672945 265.360177 81.601001 232.288233 81.601001 191.762351 C 81.601001 151.23647 114.672945 118.164526 155.198826 118.164526 C 195.724708 118.164526 228.796652 151.23647 228.796652 191.762351 C 228.796652 232.288233 195.724708 265.360177 155.198826 265.360177 Z M 155.198826 265.360177 " transform="matrix(0.0995699,0,0,0.0995699,0,0)"/>
</g>
</svg>
