<?xml version="1.0" encoding="UTF-8"?>
<svg xmlns="http://www.w3.org/2000/svg" xmlns:xlink="http://www.w3.org/1999/xlink" width="50px" height="50px" viewBox="0 0 50 50" version="1.1">
<g id="surface1">
<path style=" stroke:none;fill-rule:nonzero;fill:rgb(25.098041%,7.843138%,32.549021%);fill-opacity:1;" d="M 12.445312 22.671875 L 9.863281 19.292969 L 9.851562 19.296875 C 8.125 19.726562 6.578125 20.230469 5.246094 20.792969 L 2.3125 23.148438 L 4.828125 25.976562 C 6.277344 25.617188 7.808594 26.035156 9.140625 27.011719 L 9.136719 27.007812 C 9.136719 27.007812 9.136719 27.007812 9.136719 27.003906 L 9.140625 27.011719 Z M 12.445312 22.671875 "/>
<path style=" stroke:none;fill-rule:nonzero;fill:rgb(25.098041%,7.843138%,32.549021%);fill-opacity:1;" d="M 17.882812 34.941406 L 12.796875 35.617188 C 12.644531 37.238281 12.0625 38.671875 11.136719 39.671875 L 11.738281 43.726562 L 15.667969 42.90625 C 15.667969 42.90625 16.078125 40.511719 19.164062 38.996094 Z M 17.882812 34.941406 "/>
<path style=" stroke:none;fill-rule:nonzero;fill:rgb(25.098041%,7.843138%,32.549021%);fill-opacity:1;" d="M 37.554688 22.671875 L 40.136719 19.292969 L 40.148438 19.296875 C 41.875 19.726562 43.421875 20.230469 44.753906 20.792969 L 47.6875 23.148438 L 45.171875 25.976562 C 43.722656 25.617188 42.191406 26.035156 40.859375 27.011719 L 40.863281 27.007812 C 40.863281 27.007812 40.863281 27.007812 40.863281 27.003906 L 40.859375 27.011719 Z M 37.554688 22.671875 "/>
<path style=" stroke:none;fill-rule:nonzero;fill:rgb(25.098041%,7.843138%,32.549021%);fill-opacity:1;" d="M 32.117188 34.941406 L 37.203125 35.617188 C 37.355469 37.238281 37.9375 38.671875 38.863281 39.671875 L 38.261719 43.726562 L 34.332031 42.90625 C 34.332031 42.90625 33.921875 40.511719 30.835938 38.996094 Z M 32.117188 34.941406 "/>
<path style=" stroke:none;fill-rule:nonzero;fill:rgb(35.294119%,10.980392%,45.490196%);fill-opacity:1;" d="M 25 50 C 18.320312 50 12.042969 47.398438 7.320312 42.679688 C 2.601562 37.957031 0 31.679688 0 25 C 0 18.320312 2.601562 12.042969 7.320312 7.320312 C 12.042969 2.601562 18.320312 0 25 0 C 31.679688 0 37.957031 2.601562 42.679688 7.320312 C 47.398438 12.042969 50 18.320312 50 25 C 50 31.679688 47.398438 37.957031 42.679688 42.679688 C 37.957031 47.398438 31.679688 50 25 50 Z M 25 4.804688 C 13.863281 4.804688 4.804688 13.863281 4.804688 25 C 4.804688 36.136719 13.863281 45.195312 25 45.195312 C 36.136719 45.195312 45.195312 36.136719 45.195312 25 C 45.195312 13.863281 36.136719 4.804688 25 4.804688 Z M 25 4.804688 "/>
<path style=" stroke:none;fill-rule:nonzero;fill:rgb(35.294119%,10.980392%,45.490196%);fill-opacity:1;" d="M 9.863281 19.292969 C 9.859375 19.300781 8.566406 22.460938 9.136719 27.007812 L 9.140625 27.011719 C 10.566406 28.054688 11.765625 29.746094 12.394531 31.828125 C 12.785156 33.125 12.90625 34.421875 12.796875 35.617188 C 12.796875 35.617188 15.539062 35.433594 19.164062 38.996094 C 20.984375 39.433594 22.949219 39.671875 25 39.671875 C 27.050781 39.671875 29.015625 39.433594 30.835938 38.996094 C 34.460938 35.433594 37.203125 35.617188 37.203125 35.617188 C 37.09375 34.421875 37.214844 33.125 37.605469 31.828125 C 38.234375 29.746094 39.433594 28.058594 40.859375 27.011719 L 40.863281 27.007812 C 41.433594 22.460938 40.136719 19.300781 40.136719 19.292969 C 35.933594 18.242188 30.691406 17.617188 25 17.617188 C 19.308594 17.617188 14.066406 18.242188 9.863281 19.292969 Z M 9.863281 19.292969 "/>
<path style=" stroke:none;fill-rule:nonzero;fill:rgb(25.098041%,7.843138%,32.549021%);fill-opacity:1;" d="M 28.1875 25 C 28.1875 23.238281 26.761719 21.8125 25 21.8125 C 23.238281 21.8125 21.8125 23.238281 21.8125 25 C 21.8125 26.761719 23.238281 28.1875 25 28.1875 C 26.761719 28.1875 28.1875 26.761719 28.1875 25 Z M 28.1875 25 "/>
</g>
</svg>
