<svg xmlns="http://www.w3.org/2000/svg" xmlns:xlink="http://www.w3.org/1999/xlink" viewBox="0,0,256,256" width="32px" height="32px" fill-rule="nonzero"><g fill="#5a1c74" fill-rule="nonzero" stroke="none" stroke-width="1" stroke-linecap="butt" stroke-linejoin="miter" stroke-miterlimit="10" stroke-dasharray="" stroke-dashoffset="0" font-family="none" font-weight="none" font-size="none" text-anchor="none" style="mix-blend-mode: normal"><g transform="scale(16,16)"><path d="M7,0l-0.31641,2.14844c-0.68093,0.1526 -1.31698,0.42282 -1.88867,0.78516l-1.74414,-1.29688l-1.41406,1.41406l1.29688,1.74414c-0.36234,0.57169 -0.63255,1.20774 -0.78516,1.88867l-2.14844,0.31641v2l2.14844,0.31641c0.1526,0.68093 0.42282,1.31698 0.78516,1.88867l-1.29688,1.74414l1.41406,1.41406l1.74414,-1.29687c0.57169,0.36234 1.20774,0.63255 1.88867,0.78516l0.31641,2.14844h2l0.31641,-2.14844c0.68093,-0.1526 1.31698,-0.42282 1.88867,-0.78516l1.74414,1.29688l1.41406,-1.41406l-1.29687,-1.74414c0.36234,-0.57169 0.63255,-1.20774 0.78516,-1.88867l2.14844,-0.31641v-2l-2.14844,-0.31641c-0.1526,-0.68093 -0.42282,-1.31698 -0.78516,-1.88867l1.29688,-1.74414l-1.41406,-1.41406l-1.74414,1.29688c-0.57169,-0.36234 -1.20774,-0.63255 -1.88867,-0.78516l-0.31641,-2.14844zM8,6c1.105,0 2,0.895 2,2c0,1.105 -0.895,2 -2,2c-1.105,0 -2,-0.895 -2,-2c0,-1.105 0.895,-2 2,-2z"></path></g></g></svg>