<?xml version="1.0" encoding="UTF-8"?>
<svg xmlns="http://www.w3.org/2000/svg" xmlns:xlink="http://www.w3.org/1999/xlink" width="20px" height="20px" viewBox="0 0 20 20" version="1.1">
<g id="surface1">
<path style=" stroke:none;fill-rule:nonzero;fill:rgb(35.294119%,10.980392%,45.490196%);fill-opacity:1;" d="M 9.988281 1.65625 C 9.621094 1.664062 9.328125 1.964844 9.332031 2.332031 L 9.332031 2.667969 L 5.667969 2.667969 C 5.488281 2.664062 5.316406 2.734375 5.1875 2.859375 C 5.0625 2.984375 4.992188 3.15625 4.992188 3.332031 L 4 3.332031 C 3.757812 3.328125 3.535156 3.457031 3.414062 3.664062 C 3.292969 3.871094 3.292969 4.128906 3.414062 4.335938 C 3.535156 4.542969 3.757812 4.671875 4 4.667969 L 16 4.667969 C 16.242188 4.671875 16.464844 4.542969 16.585938 4.335938 C 16.707031 4.128906 16.707031 3.871094 16.585938 3.664062 C 16.464844 3.457031 16.242188 3.328125 16 3.332031 L 15.007812 3.332031 C 15.007812 3.15625 14.9375 2.984375 14.8125 2.859375 C 14.683594 2.734375 14.511719 2.664062 14.332031 2.667969 L 10.667969 2.667969 L 10.667969 2.332031 C 10.667969 2.152344 10.597656 1.980469 10.472656 1.851562 C 10.34375 1.726562 10.167969 1.65625 9.988281 1.65625 Z M 4 6 L 5.195312 16.15625 C 5.273438 16.828125 5.84375 17.332031 6.519531 17.332031 L 13.480469 17.332031 C 14.15625 17.332031 14.726562 16.828125 14.804688 16.15625 L 16 6 Z M 4 6 "/>
</g>
</svg>
